<?xml version="1.0" standalone="no"?>
<!DOCTYPE svg PUBLIC "-//W3C//DTD SVG 20010904//EN"
 "http://www.w3.org/TR/2001/REC-SVG-20010904/DTD/svg10.dtd">
<svg version="1.0" xmlns="http://www.w3.org/2000/svg"
 width="576.000000pt" height="576.000000pt" viewBox="0 0 576.000000 576.000000"
 preserveAspectRatio="xMidYMid meet">
<metadata>
Created by potrace 1.14, written by Peter Selinger 2001-2017
</metadata>
<g transform="translate(0.000000,576.000000) scale(0.100000,-0.100000)"
fill="#000000" stroke="none">
<path d="M1910 5433 c0 -10 -3 -27 -6 -39 -5 -19 2 -23 93 -44 570 -131 912
-497 963 -1028 5 -59 10 -117 10 -129 0 -28 42 -42 67 -22 14 12 15 30 10 129
-13 243 -94 465 -242 662 -167 222 -456 395 -791 473 -85 20 -104 19 -104 -2z"/>
<path d="M3090 4265 c0 -89 -2 -98 -25 -120 -33 -34 -83 -34 -116 1 -21 22
-24 37 -28 115 -3 86 -4 89 -25 83 -82 -25 -170 -92 -216 -164 -109 -169 -88
-374 53 -517 l51 -53 -49 -51 c-144 -146 -399 -321 -787 -540 -193 -108 -196
-95 34 -128 133 -20 381 -78 623 -146 350 -99 732 -95 964 11 30 13 55 23 57
21 6 -6 -98 -83 -149 -109 -151 -80 -301 -103 -609 -95 -235 6 -348 19 -708
81 -278 47 -406 59 -568 53 -206 -8 -336 -52 -431 -147 -77 -77 -96 -125 -96
-250 0 -89 4 -113 24 -160 50 -111 124 -199 216 -251 69 -40 80 -38 94 15 16
64 69 136 125 171 44 27 58 30 130 30 102 0 148 -24 220 -112 28 -34 54 -62
57 -62 3 -1 14 17 24 39 34 76 114 129 207 137 106 10 189 -40 273 -165 l42
-63 31 53 c36 64 98 123 161 152 36 16 65 21 136 21 103 0 153 -19 227 -84
l42 -38 27 32 c15 17 52 44 81 61 46 25 63 29 133 29 67 0 88 -5 130 -27 28
-14 62 -39 76 -55 30 -31 69 -100 69 -121 0 -22 13 -11 78 65 48 56 77 79 129
105 62 30 75 33 158 33 104 -1 157 -20 226 -82 51 -46 81 -92 103 -160 10 -29
22 -53 28 -53 5 0 71 9 146 21 541 81 679 220 436 437 -32 30 -131 101 -219
159 -88 59 -243 161 -345 229 -305 202 -453 341 -532 500 -36 73 -41 92 -49
190 -10 129 -35 216 -84 299 -39 64 -150 184 -201 216 -31 18 -32 22 -36 103
-8 155 -94 283 -231 346 -114 52 -107 56 -107 -55z"/>
<path d="M1589 1967 c-44 -29 -71 -82 -65 -124 2 -18 36 -83 74 -145 232 -380
350 -709 368 -1023 5 -88 -7 -280 -19 -292 -1 -1 -312 -31 -692 -68 -379 -36
-691 -68 -694 -70 -2 -3 1041 -5 2319 -5 1278 0 2321 2 2319 5 -3 2 -315 34
-694 70 -380 37 -691 67 -692 68 -1 1 -7 43 -14 92 -40 302 71 717 295 1108
56 98 69 128 73 175 13 147 -130 261 -277 222 -112 -29 -287 -279 -369 -527
-58 -172 -72 -268 -78 -517 l-6 -230 -18 60 c-30 94 -57 240 -69 367 -19 203
10 401 85 585 41 101 44 146 12 193 -64 96 -178 105 -250 20 -31 -37 -40 -67
-69 -221 -16 -90 -21 -158 -22 -317 0 -111 -2 -201 -3 -200 0 1 -13 45 -27 98
-39 143 -56 249 -62 394 -7 151 -15 184 -57 232 -97 111 -274 89 -336 -41 -26
-53 -26 -111 -2 -208 57 -222 42 -535 -37 -793 l-19 -60 -5 230 c-6 250 -21
345 -79 519 -59 178 -186 390 -248 416 -48 20 -100 7 -138 -35 -41 -43 -43
-87 -9 -172 107 -263 111 -619 9 -947 l-18 -59 -1 199 c-1 155 -6 225 -22 315
-42 231 -127 441 -242 594 -86 115 -148 141 -221 92z"/>
</g>
</svg>
